<?xml version="1.0" encoding="UTF-8" standalone="no" ?>
<!DOCTYPE svg PUBLIC "-//W3C//DTD SVG 1.1//EN" "http://www.w3.org/Graphics/SVG/1.1/DTD/svg11.dtd">
<svg xmlns="http://www.w3.org/2000/svg" xmlns:xlink="http://www.w3.org/1999/xlink" version="1.1" width="500" height="500" viewBox="0 0 500 500" xml:space="preserve">
<desc>Created with Fabric.js 4.6.0</desc>
<defs>
</defs>
<g transform="matrix(3.51 0 0 1.91 153.01 90.13)" id="N9wi5WMbTVMcrGOvolHJf"  >
<path style="stroke: none; stroke-width: 1; stroke-dasharray: none; stroke-linecap: butt; stroke-dashoffset: 0; stroke-linejoin: miter; stroke-miterlimit: 4; fill: rgb(49,168,247); fill-rule: nonzero; opacity: 1;" vector-effect="non-scaling-stroke"  transform=" translate(0, 0)" d="M -36.04325 -23.32408 C -36.04325 -27.703699999999998 -34.78503 -31.757089999999998 -32.73481 -33.98228 C -30.684600000000003 -36.20747 -28.147820000000003 -36.27297 -26.064480000000003 -34.15451 L 34.860809999999994 27.797919999999998 L 34.860809999999994 27.797919999999998 C 35.77486999999999 28.727389999999996 36.23130999999999 30.677039999999998 35.970459999999996 32.537679999999995 C 35.70961 34.39832 34.797549999999994 35.698479999999996 33.75317999999999 35.698479999999996 L -34.478860000000005 35.698479999999996 L -34.478860000000005 35.698479999999996 C -35.342850000000006 35.698479999999996 -36.043260000000004 34.4098 -36.043260000000004 32.82013 z" stroke-linecap="round" />
</g>
<g transform="matrix(1.71 0 0 1.15 149.67 202.92)" id="h1W4I3nEpKbihDrU08IEl"  >
<path style="stroke: rgb(47,141,204); stroke-width: 0; stroke-dasharray: none; stroke-linecap: butt; stroke-dashoffset: 0; stroke-linejoin: miter; stroke-miterlimit: 4; fill: rgb(255,255,255); fill-rule: nonzero; opacity: 1;" vector-effect="non-scaling-stroke"  transform=" translate(0, 0)" d="M -78.99999 -30.63591 C -78.99999 -32.40997 -78.03191 -33.84813 -76.83773 -33.84813 L -20.783069999999995 -33.84813 L -20.783069999999995 -33.84813 C -14.053809999999995 -33.84813 -7.405469999999996 -36.02791 -1.3012999999999941 -40.235589999999995 C 6.596450000000006 -45.67961 22.631270000000004 -56.732609999999994 22.631270000000004 -56.732609999999994 C 29.441400000000005 -61.426939999999995 36.0493 -63.12956 43.61674000000001 -62.141369999999995 C 63.800250000000005 -59.50570999999999 79.00005000000002 -36.28603 79 -8.092229999999994 C 79 -8.092229999999994 79 15.242840000000008 79 26.736230000000006 L 79 26.736230000000006 C 79 46.43925 68.24838 62.41171000000001 54.985569999999996 62.41171000000001 L -35.932500000000005 62.41171000000001 L -53.585460000000005 62.41171000000001 L -53.585460000000005 62.41171000000001 C -67.62152 62.41171000000001 -78.99999 45.50802 -78.99999 24.656250000000007 z" stroke-linecap="round" />
</g>
<g transform="matrix(1.57 0 0 1.05 154.29 205.08)" id="C-Irc2KwKskMX7E4NX012"  >
<path style="stroke: rgb(47,141,204); stroke-width: 8; stroke-dasharray: none; stroke-linecap: butt; stroke-dashoffset: 0; stroke-linejoin: miter; stroke-miterlimit: 4; fill: rgb(255,255,255); fill-rule: nonzero; opacity: 1;" vector-effect="non-scaling-stroke"  transform=" translate(0, 0)" d="M -78.99999 -30.89882 C -78.99999 -32.527680000000004 -78.11847 -33.84813 -77.03107 -33.84813 L -19.80323 -33.84813 L -19.80323 -33.84813 C -13.71836 -33.84813 -7.705589999999999 -35.82103 -2.1779100000000007 -39.63133 C 6.009119999999999 -45.27475 22.63127 -56.7326 22.63127 -56.7326 C 29.4414 -61.42693 36.0493 -63.129549999999995 43.61674 -62.14136 C 63.80025 -59.5057 79.00005 -36.28601999999999 79 -8.092219999999998 C 79 -8.092219999999998 79 17.199220000000004 79 29.656190000000002 L 79 29.656190000000002 C 79 47.746570000000006 69.20974 62.41172 57.13284 62.41172 L -35.93249 62.41172 L -55.8579 62.41172 L -55.8579 62.41172 C -68.63892 62.41172 -78.99998 46.89155 -78.99998 27.74646 z" stroke-linecap="round" />
</g>
<g transform="matrix(0.53 0 0 1.53 63.66 196.08)" id="IatFTi3a2BaGrJ439fyv0"  >
<path style="stroke: rgb(47,141,204); stroke-width: 0; stroke-dasharray: none; stroke-linecap: butt; stroke-dashoffset: 0; stroke-linejoin: miter; stroke-miterlimit: 4; fill: rgb(47,141,204); fill-rule: nonzero; opacity: 1;" vector-effect="non-scaling-stroke"  transform=" translate(0, 0)" d="M -18.5 -18.5 L 18.5 -18.5 L 18.5 18.5 L -18.5 18.5 z" stroke-linecap="round" />
</g>
<g transform="matrix(0.53 0 0 1.53 102.29 196.1)" id="J8Udpmc7M_thss47Cw0ot"  >
<path style="stroke: rgb(47,141,204); stroke-width: 0; stroke-dasharray: none; stroke-linecap: butt; stroke-dashoffset: 0; stroke-linejoin: miter; stroke-miterlimit: 4; fill: rgb(47,141,204); fill-rule: nonzero; opacity: 1;" vector-effect="non-scaling-stroke"  transform=" translate(0, 0)" d="M -18.5 -18.5 L 18.5 -18.5 L 18.5 18.5 L -18.5 18.5 z" stroke-linecap="round" />
</g>
<g transform="matrix(0.08 0 0 1.22 102.29 101.16)" id="70VgLjb0XME679eHPz12z"  >
<path style="stroke: rgb(47,141,204); stroke-width: 0; stroke-dasharray: none; stroke-linecap: butt; stroke-dashoffset: 0; stroke-linejoin: miter; stroke-miterlimit: 4; fill: rgb(255,255,255); fill-rule: nonzero; opacity: 1;" vector-effect="non-scaling-stroke"  transform=" translate(0, 0)" d="M -53.79056 -47.21094 L 53.79057 -43.1947 L 46.20944 47.21094000000001 L -53.79056 47.21094000000001 z" stroke-linecap="round" />
</g>
<g transform="matrix(2.61 0 0 1.42 393.14 350.85)" id="LxB59BCdqTRHYl3T1MWMb"  >
<path style="stroke: none; stroke-width: 1; stroke-dasharray: none; stroke-linecap: butt; stroke-dashoffset: 0; stroke-linejoin: miter; stroke-miterlimit: 4; fill: rgb(49,168,247); fill-rule: nonzero; opacity: 1;" vector-effect="non-scaling-stroke"  transform=" translate(0, 0)" d="M -36.69128 -23.34575 C -36.69128 -27.72573 -35.43552 -31.7817 -33.38664 -34.0194 C -31.33776 -36.25711 -28.79889 -36.34547 -26.70536 -34.25195 L 35.51197 27.965379999999996 L 35.51197 27.965379999999996 C 36.41925 28.872659999999996 36.87603 30.795379999999994 36.62131 32.63493 C 36.36659 34.47448 35.46528 35.76213 34.43237 35.76213 L -35.128350000000005 35.76213 L -35.128350000000005 35.76213 C -35.991530000000004 35.76213 -36.691280000000006 34.4762 -36.691280000000006 32.88993 z" stroke-linecap="round" />
</g>
<g transform="matrix(1.27 0 0 0.85 388.99 434.66)" id="t9vf9mWdE5KosNFLTc6Wn"  >
<path style="stroke: rgb(47,141,204); stroke-width: 0; stroke-dasharray: none; stroke-linecap: butt; stroke-dashoffset: 0; stroke-linejoin: miter; stroke-miterlimit: 4; fill: rgb(255,255,255); fill-rule: nonzero; opacity: 1;" vector-effect="non-scaling-stroke"  transform=" translate(0, 0)" d="M -78.99999 -30.6412 C -78.99999 -32.41234 -78.03439999999999 -33.84814 -76.84328 -33.84814 L -20.74871999999999 -33.84814 L -20.74871999999999 -33.84814 C -14.041949999999993 -33.84814 -7.415699999999992 -36.02086 -1.3309499999999908 -40.21516 C 6.57658000000001 -45.66592 22.631270000000008 -56.732609999999994 22.631270000000008 -56.732609999999994 C 29.44140000000001 -61.426939999999995 36.04930000000001 -63.12956 43.61674000000001 -62.141369999999995 C 63.800250000000005 -59.50570999999999 79.00005000000002 -36.28603 79 -8.092229999999994 C 79 -8.092229999999994 79 15.282180000000007 79 26.794950000000007 L 79 26.794950000000007 C 79 46.465540000000004 68.27597 62.41171000000001 55.04721 62.41171000000001 L -35.9325 62.41171000000001 L -53.65069 62.41171000000001 L -53.65069 62.41171000000001 C -67.65071999999999 62.41171000000001 -78.99999 45.53584000000001 -78.99999 24.71840000000001 z" stroke-linecap="round" />
</g>
<g transform="matrix(1.17 0 0 0.78 392.41 436.27)" id="6Pgs8gLc5WBCDyM5QtLfc"  >
<path style="stroke: rgb(47,141,204); stroke-width: 8; stroke-dasharray: none; stroke-linecap: butt; stroke-dashoffset: 0; stroke-linejoin: miter; stroke-miterlimit: 4; fill: rgb(255,255,255); fill-rule: nonzero; opacity: 1;" vector-effect="non-scaling-stroke"  transform=" translate(0, 0)" d="M -78.99999 -30.90075 C -78.99999 -32.52854 -78.11746 -33.84813 -77.02881 -33.84813 L -19.828239999999994 -33.84813 L -19.828239999999994 -33.84813 C -13.727119999999994 -33.84813 -7.698519999999993 -35.8259 -2.157819999999994 -39.64517 C 6.022580000000007 -45.28402 22.631280000000007 -56.732600000000005 22.631280000000007 -56.732600000000005 C 29.44141000000001 -61.426930000000006 36.049310000000006 -63.12955000000001 43.61675000000001 -62.141360000000006 C 63.80026000000001 -59.505700000000004 79.00006000000002 -36.28602000000001 79.00001 -8.092220000000005 C 79.00001 -8.092220000000005 79.00001 17.213579999999997 79.00001 29.677639999999997 L 79.00001 29.677639999999997 C 79.00001 47.75617 69.19853 62.411719999999995 57.10779000000001 62.411719999999995 L -35.93248999999999 62.411719999999995 L -55.83137999999999 62.411719999999995 L -55.83137999999999 62.411719999999995 C -68.62704 62.411719999999995 -78.99998 46.901709999999994 -78.99998 27.769149999999996 z" stroke-linecap="round" />
</g>
<g transform="matrix(0.39 0 0 1.14 325.13 429.58)" id="IbWZ8nac2d1ZRybzWNd6q"  >
<path style="stroke: rgb(47,141,204); stroke-width: 0; stroke-dasharray: none; stroke-linecap: butt; stroke-dashoffset: 0; stroke-linejoin: miter; stroke-miterlimit: 4; fill: rgb(47,141,204); fill-rule: nonzero; opacity: 1;" vector-effect="non-scaling-stroke"  transform=" translate(0, 0)" d="M -18.5 -18.5 L 18.5 -18.5 L 18.5 18.5 L -18.5 18.5 z" stroke-linecap="round" />
</g>
<g transform="matrix(0.39 0 0 1.14 353.81 429.6)" id="ccqrTUDmLFEp-6kGSDPUF"  >
<path style="stroke: rgb(47,141,204); stroke-width: 0; stroke-dasharray: none; stroke-linecap: butt; stroke-dashoffset: 0; stroke-linejoin: miter; stroke-miterlimit: 4; fill: rgb(47,141,204); fill-rule: nonzero; opacity: 1;" vector-effect="non-scaling-stroke"  transform=" translate(0, 0)" d="M -18.5 -18.5 L 18.5 -18.5 L 18.5 18.5 L -18.5 18.5 z" stroke-linecap="round" />
</g>
<g transform="matrix(0.06 0 0 0.91 353.81 359.12)" id="HzFFIslApNbjqZnS0RFoI"  >
<path style="stroke: rgb(47,141,204); stroke-width: 0; stroke-dasharray: none; stroke-linecap: butt; stroke-dashoffset: 0; stroke-linejoin: miter; stroke-miterlimit: 4; fill: rgb(255,255,255); fill-rule: nonzero; opacity: 1;" vector-effect="non-scaling-stroke"  transform=" translate(0, 0)" d="M -53.79056 -47.21094 L 53.79057 -43.1947 L 46.20944 47.21094000000001 L -53.79056 47.21094000000001 z" stroke-linecap="round" />
</g>
<g transform="matrix(0.39 0 0 0.19 325.13 398.31)" id="9-eay0-fCeaxH0BIroy7J"  >
<path style="stroke: rgb(47,141,204); stroke-width: 0; stroke-dasharray: none; stroke-linecap: butt; stroke-dashoffset: 0; stroke-linejoin: miter; stroke-miterlimit: 4; fill: rgb(255,255,255); fill-rule: nonzero; opacity: 1;" vector-effect="non-scaling-stroke"  transform=" translate(0, 0)" d="M -18.5 -18.5 L 18.5 -18.5 L 18.5 18.5 L -18.5 18.5 z" stroke-linecap="round" />
</g>
<g transform="matrix(0.06 0 0 1.98 353.81 445.23)" id="9pIVgBtneL81AnER7Rut0"  >
<path style="stroke: rgb(47,141,204); stroke-width: 0; stroke-dasharray: none; stroke-linecap: butt; stroke-dashoffset: 0; stroke-linejoin: miter; stroke-miterlimit: 4; fill: rgb(47,141,204); fill-rule: nonzero; opacity: 1;" vector-effect="non-scaling-stroke"  transform=" translate(0, 0)" d="M -18.5 -18.5 L 18.5 -18.5 L 18.5 18.5 L -18.5 18.5 z" stroke-linecap="round" />
</g>
<g transform="matrix(0.06 0 0 1.98 325.13 448.62)" id="WEerf3Drqrp8NYzSOAQxy"  >
<path style="stroke: rgb(47,141,204); stroke-width: 0; stroke-dasharray: none; stroke-linecap: butt; stroke-dashoffset: 0; stroke-linejoin: miter; stroke-miterlimit: 4; fill: rgb(47,141,204); fill-rule: nonzero; opacity: 1;" vector-effect="non-scaling-stroke"  transform=" translate(0, 0)" d="M -18.5 -18.5 L 18.5 -18.5 L 18.5 18.5 L -18.5 18.5 z" stroke-linecap="round" />
</g>
<g transform="matrix(0.06 0 0 1.98 378.64 448.62)" id="eK3BkTe6PCM6B0PhtL4Pw"  >
<path style="stroke: rgb(47,141,204); stroke-width: 0; stroke-dasharray: none; stroke-linecap: butt; stroke-dashoffset: 0; stroke-linejoin: miter; stroke-miterlimit: 4; fill: rgb(47,141,204); fill-rule: nonzero; opacity: 1;" vector-effect="non-scaling-stroke"  transform=" translate(0, 0)" d="M -18.5 -18.5 L 18.5 -18.5 L 18.5 18.5 L -18.5 18.5 z" stroke-linecap="round" />
</g>
<g transform="matrix(2.72 0 0 1.48 142.65 345.01)" id="b8LNyBxxZq-Elq6H0m2CH"  >
<path style="stroke: none; stroke-width: 1; stroke-dasharray: none; stroke-linecap: butt; stroke-dashoffset: 0; stroke-linejoin: miter; stroke-miterlimit: 4; fill: rgb(49,168,247); fill-rule: nonzero; opacity: 1;" vector-effect="non-scaling-stroke"  transform=" translate(0, 0)" d="M -36.04775 -23.3608 C -36.04775 -27.7303 -34.79061 -31.774140000000003 -32.74236 -33.99324 C -30.69411 -36.21233 -28.160059999999998 -36.2759 -26.07962 -34.16038 L 34.866260000000004 27.81299 L 34.866260000000004 27.81299 C 35.779920000000004 28.74206 36.235870000000006 30.68931 35.9748 32.5473 C 35.713730000000005 34.40529 34.80176 35.70343 33.75755 35.70343 L -34.484829999999995 35.70343 L -34.484829999999995 35.70343 C -35.348009999999995 35.70343 -36.04776 34.4175 -36.04776 32.83123 z" stroke-linecap="round" />
</g>
<g transform="matrix(1.33 0 0 0.89 140.07 432.44)" id="vffMG7I5Jy33LI0ZkodCP"  >
<path style="stroke: rgb(47,141,204); stroke-width: 0; stroke-dasharray: none; stroke-linecap: butt; stroke-dashoffset: 0; stroke-linejoin: miter; stroke-miterlimit: 4; fill: rgb(255,255,255); fill-rule: nonzero; opacity: 1;" vector-effect="non-scaling-stroke"  transform=" translate(0, 0)" d="M -78.99999 -30.6412 C -78.99999 -31.49173 -78.77277 -32.307430000000004 -78.36829999999999 -32.90885 C -77.96383999999999 -33.51027 -77.41526999999999 -33.84814 -76.84326999999999 -33.84814 L -20.74870999999999 -33.84814 L -20.74870999999999 -33.84814 C -14.04193999999999 -33.84814 -7.415689999999989 -36.02086 -1.3309399999999876 -40.21516 C 6.576590000000013 -45.66592 22.63128000000001 -56.732609999999994 22.63128000000001 -56.732609999999994 C 29.441410000000012 -61.426939999999995 36.04931000000001 -63.12956 43.61675000000001 -62.141369999999995 C 63.80026000000001 -59.50570999999999 79.00006000000002 -36.28603 79.00001 -8.092229999999994 C 79.00001 -8.092229999999994 79.00001 15.282180000000007 79.00001 26.794950000000007 L 79.00001 26.794950000000007 C 79.00001 46.465540000000004 68.27598 62.41171000000001 55.04722 62.41171000000001 L -35.932489999999994 62.41171000000001 L -53.650679999999994 62.41171000000001 L -53.650679999999994 62.41171000000001 C -67.65070999999999 62.41171000000001 -78.99998 45.53584000000001 -78.99998 24.71840000000001 z" stroke-linecap="round" />
</g>
<g transform="matrix(1.22 0 0 0.81 143.64 434.12)" id="pZ89EV-0z8_NyIzxpyKuH"  >
<path style="stroke: rgb(47,141,204); stroke-width: 8; stroke-dasharray: none; stroke-linecap: butt; stroke-dashoffset: 0; stroke-linejoin: miter; stroke-miterlimit: 4; fill: rgb(255,255,255); fill-rule: nonzero; opacity: 1;" vector-effect="non-scaling-stroke"  transform=" translate(0, 0)" d="M -78.99999 -30.90075 C -78.99999 -32.52854 -78.11746 -33.84813 -77.02881 -33.84813 L -19.828239999999994 -33.84813 L -19.828239999999994 -33.84813 C -13.727119999999994 -33.84813 -7.698519999999993 -35.8259 -2.157819999999994 -39.64517 C 6.022580000000007 -45.28402 22.631280000000007 -56.732600000000005 22.631280000000007 -56.732600000000005 C 29.44141000000001 -61.426930000000006 36.049310000000006 -63.12955000000001 43.61675000000001 -62.141360000000006 C 63.80026000000001 -59.505700000000004 79.00006000000002 -36.28602000000001 79.00001 -8.092220000000005 C 79.00001 -8.092220000000005 79.00001 17.213579999999997 79.00001 29.677639999999997 L 79.00001 29.677639999999997 C 79.00001 47.75617 69.19853 62.411719999999995 57.10779000000001 62.411719999999995 L -35.93248999999999 62.411719999999995 L -55.83137999999999 62.411719999999995 L -55.83137999999999 62.411719999999995 C -68.62704 62.411719999999995 -78.99998 46.901709999999994 -78.99998 27.769149999999996 z" stroke-linecap="round" />
</g>
<g transform="matrix(0.41 0 0 1.19 73.39 427.14)" id="nwSxl_qZYeFreibNa7Pg4"  >
<path style="stroke: rgb(47,141,204); stroke-width: 0; stroke-dasharray: none; stroke-linecap: butt; stroke-dashoffset: 0; stroke-linejoin: miter; stroke-miterlimit: 4; fill: rgb(47,141,204); fill-rule: nonzero; opacity: 1;" vector-effect="non-scaling-stroke"  transform=" translate(0, 0)" d="M -18.5 -18.5 L 18.5 -18.5 L 18.5 18.5 L -18.5 18.5 z" stroke-linecap="round" />
</g>
<g transform="matrix(0.41 0 0 1.19 103.34 427.16)" id="GA5AnkeRmquDsaVB3ymKd"  >
<path style="stroke: rgb(47,141,204); stroke-width: 0; stroke-dasharray: none; stroke-linecap: butt; stroke-dashoffset: 0; stroke-linejoin: miter; stroke-miterlimit: 4; fill: rgb(47,141,204); fill-rule: nonzero; opacity: 1;" vector-effect="non-scaling-stroke"  transform=" translate(0, 0)" d="M -18.5 -18.5 L 18.5 -18.5 L 18.5 18.5 L -18.5 18.5 z" stroke-linecap="round" />
</g>
<g transform="matrix(0.06 0 0 0.97 118.27 352.71)" id="aVWXFRCQmrJNU_0OCdV0a"  >
<path style="stroke: rgb(47,141,204); stroke-width: 0; stroke-dasharray: none; stroke-linecap: butt; stroke-dashoffset: 0; stroke-linejoin: miter; stroke-miterlimit: 4; fill: rgb(255,255,255); fill-rule: nonzero; opacity: 1;" vector-effect="non-scaling-stroke"  transform=" translate(0, 0)" d="M -326.23806 -47.21094 L 33.37554 -37.62683 L 326.23806 47.21094000000001 L -326.23807 47.21094000000001 z" stroke-linecap="round" />
</g>
</svg>